<?xml version="1.0" encoding="utf-8"?>
<!-- Generator: Adobe Illustrator 22.0.1, SVG Export Plug-In . SVG Version: 6.00 Build 0)  -->
<svg version="1.1" id="Capa_1" xmlns="http://www.w3.org/2000/svg" xmlns:xlink="http://www.w3.org/1999/xlink" x="0px" y="0px"
	 viewBox="0 0 24 24" style="enable-background:new 0 0 24 24;" xml:space="preserve">
<style type="text/css">
	.st0{fill:#B64E4A;}
</style>
<g>
	<g>
		<g>
			<path class="st0" d="M19.8,10.3l-7.6-6.2c-0.1-0.1-0.3-0.1-0.5,0l-7.6,6.2c-0.1,0.2-0.2,0.5,0,0.7s0.4,0.3,0.6,0.1L12,5l7.3,6
				c0.1,0.1,0.2,0.1,0.2,0.1c0.1,0,0.3-0.1,0.3-0.2C20.1,10.8,20,10.5,19.8,10.3z"/>
		</g>
	</g>
	<g>
		<g>
			<path class="st0" d="M17.8,11.2c-0.2,0-0.4,0.2-0.4,0.5v7.4h-3.3V15c0-1.3-0.9-2.3-2.1-2.3s-2.1,1-2.1,2.3v4.1H6.6v-7.4
				c0-0.3-0.2-0.5-0.4-0.5s-0.4,0.2-0.4,0.5v7.9C5.8,19.8,6,20,6.2,20h4.2c0.2,0,0.4-0.2,0.4-0.4l0,0V15c0-0.8,0.6-1.4,1.2-1.4
				c0.7,0,1.2,0.6,1.2,1.4v4.5l0,0c0,0.2,0.2,0.4,0.4,0.4h4.2c0.2,0,0.4-0.2,0.4-0.5v-7.9C18.2,11.4,18,11.2,17.8,11.2z"/>
		</g>
	</g>
</g>
</svg>
