<?xml version="1.0" encoding="utf-8"?>
<!-- Generator: Adobe Illustrator 22.0.1, SVG Export Plug-In . SVG Version: 6.00 Build 0)  -->
<svg version="1.1" id="Capa_1" xmlns="http://www.w3.org/2000/svg" xmlns:xlink="http://www.w3.org/1999/xlink" x="0px" y="0px"
	 viewBox="0 0 100 100" style="enable-background:new 0 0 100 100;" xml:space="preserve">
<style type="text/css">
	.st0{fill:url(#SVGID_1_);}
	.st1{fill:url(#SVGID_2_);}
	.st2{fill:#474244;}
	.st3{fill:#B53E45;}
	.st4{fill:url(#SVGID_3_);}
	.st5{fill:url(#SVGID_4_);}
	.st6{fill:#605C5E;}
	.st7{fill:url(#SVGID_5_);}
	.st8{fill:url(#SVGID_6_);}
	.st9{fill:#1E1A19;}
	.st10{fill:url(#SVGID_7_);}
	.st11{fill:url(#SVGID_8_);}
	.st12{fill:#FFFFFF;}
	.st13{fill:#443E44;}
</style>
<g>
	<g>
		<linearGradient id="SVGID_1_" gradientUnits="userSpaceOnUse" x1="-428.4601" y1="6.01" x2="-345.0502" y2="89.4199">
			<stop  offset="0" style="stop-color:#FFFFFF"/>
			<stop  offset="1" style="stop-color:#E2E4E8"/>
		</linearGradient>
		<path class="st0" d="M-353,92.7h-67.5c-6.2,0-11.2-5-11.2-11.2V14c0-6.2,5-11.2,11.2-11.2h67.5c6.2,0,11.2,5,11.2,11.2v67.5
			C-341.8,87.7-346.8,92.7-353,92.7z"/>
		<linearGradient id="SVGID_2_" gradientUnits="userSpaceOnUse" x1="-427.9793" y1="6.4908" x2="-345.5309" y2="88.9391">
			<stop  offset="0" style="stop-color:#F1F2F4"/>
			<stop  offset="1" style="stop-color:#FFFFFF"/>
		</linearGradient>
		<path class="st1" d="M-420.5,92c-5.8,0-10.6-4.7-10.6-10.6V14c0-5.8,4.7-10.6,10.6-10.6h67.5c5.8,0,10.6,4.7,10.6,10.6v67.5
			c0,5.8-4.7,10.6-10.6,10.6H-420.5z"/>
	</g>
</g>
<g>
	<path class="st2" d="M-413.4,34.4v36.1c0,3.9,3.2,7.1,7.1,7.1h39c3.9,0,7.1-3.2,7.1-7.1V43.4l-7.1,8.5v18.7h-39V44.7
		c0-0.5,0-0.9,0-1.4v-8.9h32.6l6-7.1h-38.6C-410.2,27.3-413.4,30.5-413.4,34.4z"/>
	<path class="st3" d="M-395.5,41.1c-1.6-1.4-4-1.3-5.5,0.2c-1.6,1.6-1.6,4.1-0.1,5.7l14.5,14.8l3.7,3.8l3.3-4.2l12.2-15.5l7.1-9.1
		l11.9-15.1c1-1.3,0.9-3.2-0.4-4.4c-1.3-1.2-3.3-1.1-4.5,0.2l-9.9,11l-5.2,5.8l-15.3,17L-395.5,41.1z"/>
</g>
<g>
	<g>
		<linearGradient id="SVGID_3_" gradientUnits="userSpaceOnUse" x1="-284.627" y1="8.4075" x2="-201.2172" y2="91.8173">
			<stop  offset="0" style="stop-color:#FFFFFF"/>
			<stop  offset="1" style="stop-color:#E2E4E8"/>
		</linearGradient>
		<path class="st4" d="M-209.2,95.1h-67.5c-6.2,0-11.2-5-11.2-11.2V16.4c0-6.2,5-11.2,11.2-11.2h67.5c6.2,0,11.2,5,11.2,11.2v67.5
			C-197.9,90.1-203,95.1-209.2,95.1z"/>
		<linearGradient id="SVGID_4_" gradientUnits="userSpaceOnUse" x1="-284.1463" y1="8.8882" x2="-201.698" y2="91.3366">
			<stop  offset="0" style="stop-color:#F1F2F4"/>
			<stop  offset="1" style="stop-color:#FFFFFF"/>
		</linearGradient>
		<path class="st5" d="M-276.7,94.4c-5.8,0-10.6-4.7-10.6-10.6V16.4c0-5.8,4.7-10.6,10.6-10.6h67.5c5.8,0,10.6,4.7,10.6,10.6v67.5
			c0,5.8-4.7,10.6-10.6,10.6H-276.7z"/>
	</g>
</g>
<g>
	<g>
		<g>
			<path class="st3" d="M3277,1914.4c-0.5,0-0.9,0.4-0.9,0.9v18.9c0,0.5,0.4,0.9,0.9,0.9h8.5c0.5,0,0.9-0.4,0.9-0.9v-18.9
				c0-0.5-0.4-0.9-0.9-0.9H3277z"/>
			<path class="st3" d="M3290.7,1906.4c-0.5,0-0.9,0.4-0.9,0.9v26.9c0,0.5,0.4,0.9,0.9,0.9h8.5c0.5,0,0.9-0.4,0.9-0.9v-26.9
				c0-0.5-0.4-0.9-0.9-0.9H3290.7z"/>
			<path class="st3" d="M3304.5,1909.4c-0.5,0-0.9,0.4-0.9,0.9v23.9c0,0.5,0.4,0.9,0.9,0.9h8.5c0.5,0,0.9-0.4,0.9-0.9v-23.9
				c0-0.5-0.4-0.9-0.9-0.9H3304.5z"/>
			<path class="st6" d="M3318.3,1902.1c-0.5,0-0.9,0.4-0.9,0.9v31.2c0,0.5,0.4,0.9,0.9,0.9h8.5c0.5,0,0.9-0.4,0.9-0.9V1903
				c0-0.5-0.4-0.9-0.9-0.9H3318.3z"/>
			<path class="st6" d="M3279.2,1900.2c1.9-1.1,4.4-0.5,5.6,1.5c1.1,1.9,0.5,4.4-1.5,5.6c0,0,0,0,0,0c-1.9,1.1-4.4,0.5-5.6-1.5
				C3276.6,1903.8,3277.2,1901.3,3279.2,1900.2C3279.2,1900.2,3279.2,1900.2,3279.2,1900.2z"/>
			<path class="st6" d="M3292.9,1892.1c1.9-1.1,4.4-0.5,5.6,1.5c1.1,1.9,0.5,4.4-1.5,5.6c0,0,0,0,0,0c-1.9,1.1-4.4,0.5-5.6-1.5
				C3290.3,1895.7,3291,1893.2,3292.9,1892.1C3292.9,1892.1,3292.9,1892.1,3292.9,1892.1z"/>
			<path class="st6" d="M3306.7,1895.2c1.9-1.1,4.4-0.5,5.6,1.5c1.1,1.9,0.5,4.4-1.5,5.6c0,0,0,0,0,0c-1.9,1.1-4.4,0.5-5.6-1.5
				S3304.8,1896.4,3306.7,1895.2C3306.7,1895.2,3306.7,1895.2,3306.7,1895.2z"/>
			<path class="st6" d="M3320.5,1888.1c1.9-1.1,4.4-0.5,5.6,1.5c1.1,1.9,0.5,4.4-1.5,5.6c0,0,0,0,0,0c-1.9,1.1-4.4,0.5-5.6-1.5
				C3317.9,1891.7,3318.5,1889.2,3320.5,1888.1C3320.5,1888.1,3320.5,1888.1,3320.5,1888.1z"/>
			<path class="st6" d="M3295,1894.6c-0.2,0-0.3,0-0.5,0.1l-13.4,8c-0.4,0.3-0.6,0.8-0.3,1.3c0.3,0.4,0.8,0.6,1.3,0.3l0,0l13.4-8
				c0.4-0.3,0.6-0.8,0.3-1.3C3295.6,1894.8,3295.3,1894.6,3295,1894.6z"/>
			<path class="st6" d="M3295.2,1894.6c-0.5,0-0.9,0.5-0.9,1c0,0.4,0.3,0.7,0.7,0.8l13.3,3.2c0.5,0.1,1-0.2,1.1-0.7
				c0.1-0.5-0.2-1-0.7-1.1c0,0,0,0,0,0l-13.3-3.2C3295.4,1894.6,3295.3,1894.6,3295.2,1894.6z"/>
			<path class="st6" d="M3322.4,1890.6c-0.1,0-0.3,0-0.4,0.1l-13.4,7.2c-0.4,0.2-0.6,0.8-0.4,1.2c0.2,0.4,0.8,0.6,1.2,0.4l13.4-7.2
				c0.4-0.2,0.6-0.8,0.4-1.2C3323.1,1890.8,3322.8,1890.6,3322.4,1890.6z"/>
		</g>
	</g>
</g>
<g>
	<g>
		<linearGradient id="SVGID_5_" gradientUnits="userSpaceOnUse" x1="8.2951" y1="8.2951" x2="91.7049" y2="91.7049">
			<stop  offset="0" style="stop-color:#FFFFFF"/>
			<stop  offset="1" style="stop-color:#E2E4E8"/>
		</linearGradient>
		<path class="st7" d="M83.8,95H16.2C10,95,5,90,5,83.8V16.2C5,10,10,5,16.2,5h67.5C90,5,95,10,95,16.2v67.5C95,90,90,95,83.8,95z"
			/>
		<linearGradient id="SVGID_6_" gradientUnits="userSpaceOnUse" x1="8.7758" y1="8.7758" x2="91.2242" y2="91.2242">
			<stop  offset="0" style="stop-color:#F1F2F4"/>
			<stop  offset="1" style="stop-color:#FFFFFF"/>
		</linearGradient>
		<path class="st8" d="M16.2,94.3c-5.8,0-10.6-4.7-10.6-10.6V16.2c0-5.8,4.7-10.6,10.6-10.6h67.5c5.8,0,10.6,4.7,10.6,10.6v67.5
			c0,5.8-4.7,10.6-10.6,10.6H16.2z"/>
	</g>
</g>
<g>
	<circle class="st3" cx="51.2" cy="67.7" r="4.7"/>
	<path class="st3" d="M51.2,73.7L51.2,73.7c-5.2,0-9.4,1.2-9.4,6.4v1.6c0,0.9,0.7,1.6,1.6,1.6h15.5c0.9,0,1.6-0.7,1.6-1.6v-1.6
		C60.6,74.9,56.3,73.7,51.2,73.7z"/>
	<ellipse transform="matrix(0.9845 -0.1753 0.1753 0.9845 -3.8061 9.3725)" class="st3" cx="51.2" cy="26.2" rx="4.7" ry="4.7"/>
	<path class="st3" d="M43.4,41.8h15.5c0.9,0,1.6-0.7,1.6-1.6v-1.6c0-5.2-4.2-6.4-9.4-6.4h0c-5.2,0-9.4,1.2-9.4,6.4v1.6
		C41.8,41.1,42.5,41.8,43.4,41.8z"/>
	<circle class="st6" cx="73.7" cy="45.6" r="4.7"/>
	<path class="st6" d="M73.7,51.6L73.7,51.6c-5.2,0-9.4,1.2-9.4,6.4v1.6c0,0.9,0.7,1.6,1.6,1.6h15.5c0.9,0,1.6-0.7,1.6-1.6V58
		C83.1,52.8,78.8,51.6,73.7,51.6z"/>
	<circle class="st6" cx="29.1" cy="45.6" r="4.7"/>
	<path class="st6" d="M38.5,59.6V58c0-5.2-4.2-6.4-9.4-6.4l0,0c-5.2,0-9.4,1.2-9.4,6.4v1.6c0,0.9,0.7,1.6,1.6,1.6h15.5
		C37.8,61.2,38.5,60.5,38.5,59.6z"/>
	<path class="st9" d="M65.9,63.3l-8.7,8.7c0.7,0.2,1.4,0.5,1.9,0.8c0,0,0.1,0.1,0.1,0.1l9.6-9.6L65.9,63.3
		C65.9,63.3,65.9,63.3,65.9,63.3z"/>
	<path class="st9" d="M43.7,72.9c0.6-0.3,1.2-0.6,1.9-0.8l-8.7-8.7c0,0,0,0-0.1,0h-2.9l9.6,9.6C43.6,72.9,43.7,72.9,43.7,72.9z"/>
	<path class="st9" d="M65.5,51.3l-7.6-7.6h-3l9,9C64.4,52.1,65,51.6,65.5,51.3z"/>
	<path class="st9" d="M38.8,52.7l9-9h-3l-7.6,7.6C37.8,51.6,38.4,52.1,38.8,52.7z"/>
</g>
<g>
	<g>
		<linearGradient id="SVGID_7_" gradientUnits="userSpaceOnUse" x1="-140.6563" y1="8.9896" x2="-57.2464" y2="92.3995">
			<stop  offset="0" style="stop-color:#FFFFFF"/>
			<stop  offset="1" style="stop-color:#E2E4E8"/>
		</linearGradient>
		<path class="st10" d="M-65.2,95.7h-67.5c-6.2,0-11.2-5-11.2-11.2V16.9c0-6.2,5-11.2,11.2-11.2h67.5c6.2,0,11.2,5,11.2,11.2v67.5
			C-54,90.7-59,95.7-65.2,95.7z"/>
		<linearGradient id="SVGID_8_" gradientUnits="userSpaceOnUse" x1="-140.1755" y1="9.4704" x2="-57.7272" y2="91.9187">
			<stop  offset="0" style="stop-color:#F1F2F4"/>
			<stop  offset="1" style="stop-color:#FFFFFF"/>
		</linearGradient>
		<path class="st11" d="M-132.7,95c-5.8,0-10.6-4.7-10.6-10.6V16.9c0-5.8,4.7-10.6,10.6-10.6h67.5c5.8,0,10.6,4.7,10.6,10.6v67.5
			c0,5.8-4.7,10.6-10.6,10.6H-132.7z"/>
	</g>
</g>
<g>
	<g>
		<g>
			<path class="st3" d="M-65.7,45.9c0-14.9-12.1-27.1-27.1-27.1c-14.9,0-27.1,12.1-27.1,27.1c0,0.1,0,0.1,0,0.2c0,0,0,0,0,0
				l-4.7,10.9c-0.4,0.9-0.3,2,0.3,2.9c0.6,0.9,1.5,1.4,2.5,1.4h4.4v10.8c0,1.7,1.4,3,3,3c0.2,0,0.3,0,0.5,0l11.2-1.8v11.4
				c0,0.4,0.3,0.7,0.7,0.7h25.5c0.4,0,0.7-0.3,0.7-0.7V67C-69.4,61.9-65.7,54.2-65.7,45.9z"/>
			<path class="st12" d="M-74.4,38.7c0,6.6-8.3,11.9-18.5,11.9s-18.5-5.3-18.5-11.9s8.3-14.2,18.5-14.2S-74.4,32.1-74.4,38.7z"/>
		</g>
	</g>
	<g>
		<path class="st13" d="M-85,32.6c0.8,0,1.5-0.7,1.5-1.6c0-0.9-0.7-1.6-1.6-1.6c-0.9,0-1.6,0.7-1.6,1.6c0,0.4,0.2,0.8,0.4,1.1
			l-1.2,2.9H-91c0,0.1,0,0.2,0,0.4c0,0.1,0,0.2,0,0.4h3.3l-1,2.4c-0.2,0-0.4,0-0.5,0.1l-2.4-2.4c0.1-0.2,0.1-0.3,0.1-0.5
			c0-0.9-0.7-1.6-1.6-1.6s-1.6,0.7-1.6,1.6c0,0.2,0.1,0.4,0.1,0.6l-1.9,2.2c-0.1,0-0.3-0.1-0.5-0.1c-0.9,0-1.6,0.7-1.6,1.6
			c0,0.2,0,0.4,0.1,0.6l-2.3,2.3c-0.2-0.1-0.4-0.1-0.5-0.1c-0.9,0-1.6,0.7-1.6,1.6c0,0.9,0.7,1.6,1.6,1.6c0.9,0,1.6-0.7,1.6-1.6
			c0-0.2,0-0.4-0.1-0.6l2.3-2.3c0.2,0.1,0.4,0.1,0.5,0.1c0.9,0,1.6-0.7,1.6-1.6c0-0.2-0.1-0.4-0.1-0.6l1.9-2.2
			c0.1,0,0.3,0.1,0.5,0.1c0.2,0,0.4,0,0.6-0.1l2.4,2.4c-0.1,0.2-0.1,0.3-0.1,0.5c0,0.9,0.7,1.6,1.6,1.6c0.9,0,1.6-0.7,1.6-1.6
			c0-0.4-0.2-0.8-0.4-1.1l1.2-2.9h4.7V35H-86L-85,32.6z M-84.4,31c0,0.3-0.3,0.6-0.6,0.6s-0.6-0.3-0.6-0.6c0-0.3,0.3-0.6,0.6-0.6
			S-84.4,30.7-84.4,31z M-88,39.7c0,0.3-0.3,0.6-0.6,0.6c-0.3,0-0.6-0.3-0.6-0.6s0.3-0.6,0.6-0.6C-88.3,39.1-88,39.4-88,39.7z
			 M-93,36c-0.3,0-0.6-0.3-0.6-0.6c0-0.3,0.3-0.6,0.6-0.6c0.3,0,0.6,0.3,0.6,0.6C-92.4,35.7-92.7,36-93,36z M-97.5,39.7
			c0-0.3,0.3-0.6,0.6-0.6c0.3,0,0.6,0.3,0.6,0.6s-0.3,0.6-0.6,0.6C-97.2,40.3-97.5,40-97.5,39.7z M-101.8,44c0-0.3,0.3-0.6,0.6-0.6
			s0.6,0.3,0.6,0.6s-0.3,0.6-0.6,0.6S-101.8,44.4-101.8,44z"/>
		<path class="st13" d="M-87.1,31c0-0.1,0-0.2,0-0.4h-17.2v0.7H-87C-87.1,31.3-87.1,31.1-87.1,31z"/>
		<path class="st13" d="M-83,30.6c0,0.1,0,0.2,0,0.4c0,0.1,0,0.2,0,0.4h1.4v-0.7H-83z"/>
		<path class="st13" d="M-95.1,35.4c0-0.1,0-0.2,0-0.4h-9.2v0.7h9.2C-95.1,35.6-95.1,35.5-95.1,35.4z"/>
		<path class="st13" d="M-86.6,39.7c0,0.1,0,0.2,0,0.4h5v-0.7h-5C-86.6,39.4-86.6,39.6-86.6,39.7z"/>
		<path class="st13" d="M-94.8,39.3c0,0.1,0,0.2,0,0.4s0,0.2,0,0.4h4.1c0-0.1,0-0.2,0-0.4s0-0.2,0-0.4H-94.8z"/>
		<path class="st13" d="M-98.9,39.7c0-0.1,0-0.2,0-0.4h-5.3v0.7h5.3C-98.9,39.9-98.9,39.8-98.9,39.7z"/>
		<path class="st13" d="M-104.2,43.7v0.7h1c0-0.1,0-0.2,0-0.4c0-0.1,0-0.2,0-0.4H-104.2z"/>
		<path class="st13" d="M-99.1,44c0,0.1,0,0.2,0,0.4h17.5v-0.7h-17.5C-99.1,43.8-99.1,43.9-99.1,44z"/>
		<circle class="st12" cx="-85" cy="31" r="0.6"/>
		<path class="st12" d="M-92.4,35.4c0-0.3-0.3-0.6-0.6-0.6c-0.3,0-0.6,0.3-0.6,0.6c0,0.3,0.3,0.6,0.6,0.6
			C-92.7,36-92.4,35.7-92.4,35.4z"/>
		<path class="st12" d="M-89.2,39.7c0,0.3,0.3,0.6,0.6,0.6c0.3,0,0.6-0.3,0.6-0.6s-0.3-0.6-0.6-0.6C-89,39.1-89.2,39.4-89.2,39.7z"
			/>
		<circle class="st12" cx="-96.9" cy="39.7" r="0.6"/>
		<circle class="st12" cx="-101.2" cy="44" r="0.6"/>
	</g>
</g>
</svg>
