<?xml version="1.0" encoding="utf-8"?>
<!-- Generator: Adobe Illustrator 22.0.1, SVG Export Plug-In . SVG Version: 6.00 Build 0)  -->
<svg version="1.1" id="Capa_1" xmlns="http://www.w3.org/2000/svg" xmlns:xlink="http://www.w3.org/1999/xlink" x="0px" y="0px"
	 viewBox="0 0 100 100" style="enable-background:new 0 0 100 100;" xml:space="preserve">
<style type="text/css">
	.st0{fill:url(#SVGID_1_);}
	.st1{fill:url(#SVGID_2_);}
	.st2{fill:#474244;}
	.st3{fill:#B53E45;}
	.st4{fill:url(#SVGID_3_);}
	.st5{fill:url(#SVGID_4_);}
	.st6{fill:#605C5E;}
	.st7{fill:url(#SVGID_5_);}
	.st8{fill:url(#SVGID_6_);}
	.st9{fill:#1E1A19;}
	.st10{fill:url(#SVGID_7_);}
	.st11{fill:url(#SVGID_8_);}
	.st12{fill:#FFFFFF;}
	.st13{fill:#443E44;}
</style>
<g>
	<g>
		<linearGradient id="SVGID_1_" gradientUnits="userSpaceOnUse" x1="-279.5087" y1="5.3155" x2="-196.0988" y2="88.7254">
			<stop  offset="0" style="stop-color:#FFFFFF"/>
			<stop  offset="1" style="stop-color:#E2E4E8"/>
		</linearGradient>
		<path class="st0" d="M-204.1,92h-67.5c-6.2,0-11.2-5-11.2-11.2V13.3c0-6.2,5-11.2,11.2-11.2h67.5c6.2,0,11.2,5,11.2,11.2v67.5
			C-192.8,87-197.8,92-204.1,92z"/>
		<linearGradient id="SVGID_2_" gradientUnits="userSpaceOnUse" x1="-279.0279" y1="5.7963" x2="-196.5796" y2="88.2446">
			<stop  offset="0" style="stop-color:#F1F2F4"/>
			<stop  offset="1" style="stop-color:#FFFFFF"/>
		</linearGradient>
		<path class="st1" d="M-271.6,91.3c-5.8,0-10.6-4.7-10.6-10.6V13.3c0-5.8,4.7-10.6,10.6-10.6h67.5c5.8,0,10.6,4.7,10.6,10.6v67.5
			c0,5.8-4.7,10.6-10.6,10.6H-271.6z"/>
	</g>
</g>
<g>
	<path class="st2" d="M-264.5,33.7v36.1c0,3.9,3.2,7.1,7.1,7.1h39c3.9,0,7.1-3.2,7.1-7.1V42.7l-7.1,8.5v18.7h-39V44
		c0-0.5,0-0.9,0-1.4v-8.9h32.6l6-7.1h-38.6C-261.3,26.6-264.5,29.8-264.5,33.7z"/>
	<path class="st3" d="M-246.5,40.4c-1.6-1.4-4-1.3-5.5,0.2c-1.6,1.6-1.6,4.1-0.1,5.7l14.5,14.8l3.7,3.8l3.3-4.2l12.2-15.5l7.1-9.1
		l11.9-15.1c1-1.3,0.9-3.2-0.4-4.4c-1.3-1.2-3.3-1.1-4.5,0.2l-9.9,11l-5.2,5.8l-15.3,17L-246.5,40.4z"/>
</g>
<g>
	<g>
		<linearGradient id="SVGID_3_" gradientUnits="userSpaceOnUse" x1="-135.6757" y1="7.7129" x2="-52.2658" y2="91.1228">
			<stop  offset="0" style="stop-color:#FFFFFF"/>
			<stop  offset="1" style="stop-color:#E2E4E8"/>
		</linearGradient>
		<path class="st4" d="M-60.2,94.4h-67.5c-6.2,0-11.2-5-11.2-11.2V15.7c0-6.2,5-11.2,11.2-11.2h67.5c6.2,0,11.2,5,11.2,11.2v67.5
			C-49,89.4-54,94.4-60.2,94.4z"/>
		<linearGradient id="SVGID_4_" gradientUnits="userSpaceOnUse" x1="-135.1949" y1="8.1937" x2="-52.7466" y2="90.642">
			<stop  offset="0" style="stop-color:#F1F2F4"/>
			<stop  offset="1" style="stop-color:#FFFFFF"/>
		</linearGradient>
		<path class="st5" d="M-127.7,93.7c-5.8,0-10.6-4.7-10.6-10.6V15.7c0-5.8,4.7-10.6,10.6-10.6h67.5c5.8,0,10.6,4.7,10.6,10.6v67.5
			c0,5.8-4.7,10.6-10.6,10.6H-127.7z"/>
	</g>
</g>
<g>
	<g>
		<g>
			<path class="st3" d="M3398.8,1913.8c-0.5,0-0.9,0.4-0.9,0.9v18.9c0,0.5,0.4,0.9,0.9,0.9h8.5c0.5,0,0.9-0.4,0.9-0.9v-18.9
				c0-0.5-0.4-0.9-0.9-0.9H3398.8z"/>
			<path class="st3" d="M3412.6,1905.9c-0.5,0-0.9,0.4-0.9,0.9v26.9c0,0.5,0.4,0.9,0.9,0.9h8.5c0.5,0,0.9-0.4,0.9-0.9v-26.9
				c0-0.5-0.4-0.9-0.9-0.9H3412.6z"/>
			<path class="st3" d="M3426.4,1908.8c-0.5,0-0.9,0.4-0.9,0.9v23.9c0,0.5,0.4,0.9,0.9,0.9h8.5c0.5,0,0.9-0.4,0.9-0.9v-23.9
				c0-0.5-0.4-0.9-0.9-0.9H3426.4z"/>
			<path class="st6" d="M3440.1,1901.6c-0.5,0-0.9,0.4-0.9,0.9v31.2c0,0.5,0.4,0.9,0.9,0.9h8.5c0.5,0,0.9-0.4,0.9-0.9v-31.2
				c0-0.5-0.4-0.9-0.9-0.9H3440.1z"/>
			<path class="st6" d="M3401,1899.6c1.9-1.1,4.4-0.5,5.6,1.5c1.1,1.9,0.5,4.4-1.5,5.6c0,0,0,0,0,0c-1.9,1.1-4.4,0.5-5.6-1.5
				C3398.4,1903.3,3399.1,1900.8,3401,1899.6C3401,1899.6,3401,1899.6,3401,1899.6z"/>
			<path class="st6" d="M3414.8,1891.5c1.9-1.1,4.4-0.5,5.6,1.5c1.1,1.9,0.5,4.4-1.5,5.6c0,0,0,0,0,0c-1.9,1.1-4.4,0.5-5.6-1.5
				C3412.2,1895.1,3412.9,1892.6,3414.8,1891.5C3414.8,1891.5,3414.8,1891.5,3414.8,1891.5z"/>
			<path class="st6" d="M3428.6,1894.7c1.9-1.1,4.4-0.5,5.6,1.5s0.5,4.4-1.5,5.6c0,0,0,0,0,0c-1.9,1.1-4.4,0.5-5.6-1.5
				S3426.6,1895.8,3428.6,1894.7C3428.6,1894.7,3428.6,1894.7,3428.6,1894.7z"/>
			<path class="st6" d="M3442.3,1887.5c1.9-1.1,4.4-0.5,5.6,1.5s0.5,4.4-1.5,5.6c0,0,0,0,0,0c-1.9,1.1-4.4,0.5-5.6-1.5
				S3440.4,1888.6,3442.3,1887.5C3442.3,1887.5,3442.3,1887.5,3442.3,1887.5z"/>
			<path class="st6" d="M3416.8,1894c-0.2,0-0.3,0-0.5,0.1l-13.4,8c-0.4,0.3-0.6,0.8-0.3,1.3c0.3,0.4,0.8,0.6,1.3,0.3l0,0l13.4-8
				c0.4-0.3,0.6-0.8,0.3-1.3C3417.5,1894.2,3417.2,1894,3416.8,1894z"/>
			<path class="st6" d="M3417.1,1894c-0.5,0-0.9,0.5-0.9,1c0,0.4,0.3,0.7,0.7,0.8l13.3,3.2c0.5,0.1,1-0.2,1.1-0.7
				c0.1-0.5-0.2-1-0.7-1.1c0,0,0,0,0,0l-13.3-3.2C3417.2,1894,3417.1,1894,3417.1,1894z"/>
			<path class="st6" d="M3444.3,1890.1c-0.1,0-0.3,0-0.4,0.1l-13.4,7.2c-0.4,0.2-0.6,0.8-0.4,1.2s0.8,0.6,1.2,0.4l13.4-7.2
				c0.4-0.2,0.6-0.8,0.4-1.2C3445,1890.2,3444.6,1890.1,3444.3,1890.1z"/>
		</g>
	</g>
</g>
<g>
	<g>
		<linearGradient id="SVGID_5_" gradientUnits="userSpaceOnUse" x1="157.2464" y1="7.6005" x2="240.6563" y2="91.0104">
			<stop  offset="0" style="stop-color:#FFFFFF"/>
			<stop  offset="1" style="stop-color:#E2E4E8"/>
		</linearGradient>
		<path class="st7" d="M232.7,94.3h-67.5c-6.2,0-11.2-5-11.2-11.2V15.6c0-6.2,5-11.2,11.2-11.2h67.5c6.2,0,11.2,5,11.2,11.2v67.5
			C244,89.3,238.9,94.3,232.7,94.3z"/>
		<linearGradient id="SVGID_6_" gradientUnits="userSpaceOnUse" x1="157.7272" y1="8.0813" x2="240.1755" y2="90.5296">
			<stop  offset="0" style="stop-color:#F1F2F4"/>
			<stop  offset="1" style="stop-color:#FFFFFF"/>
		</linearGradient>
		<path class="st8" d="M165.2,93.6c-5.8,0-10.6-4.7-10.6-10.6V15.6c0-5.8,4.7-10.6,10.6-10.6h67.5c5.8,0,10.6,4.7,10.6,10.6v67.5
			c0,5.8-4.7,10.6-10.6,10.6H165.2z"/>
	</g>
</g>
<g>
	<circle class="st3" cx="200.1" cy="67" r="4.7"/>
	<path class="st3" d="M200.1,73L200.1,73c-5.2,0-9.4,1.2-9.4,6.4V81c0,0.9,0.7,1.6,1.6,1.6h15.5c0.9,0,1.6-0.7,1.6-1.6v-1.6
		C209.5,74.2,205.3,73,200.1,73z"/>
	<ellipse transform="matrix(0.9845 -0.1753 0.1753 0.9845 -1.3787 35.468)" class="st3" cx="200.1" cy="25.5" rx="4.7" ry="4.7"/>
	<path class="st3" d="M192.3,41.1h15.5c0.9,0,1.6-0.7,1.6-1.6v-1.6c0-5.2-4.2-6.4-9.4-6.4h0c-5.2,0-9.4,1.2-9.4,6.4v1.6
		C190.7,40.4,191.4,41.1,192.3,41.1z"/>
	<circle class="st6" cx="222.6" cy="44.9" r="4.7"/>
	<path class="st6" d="M222.6,50.9L222.6,50.9c-5.2,0-9.4,1.2-9.4,6.4v1.6c0,0.9,0.7,1.6,1.6,1.6h15.5c0.9,0,1.6-0.7,1.6-1.6v-1.6
		C232,52.1,227.8,50.9,222.6,50.9z"/>
	<circle class="st6" cx="178.1" cy="44.9" r="4.7"/>
	<path class="st6" d="M187.5,58.9v-1.6c0-5.2-4.2-6.4-9.4-6.4l0,0c-5.2,0-9.4,1.2-9.4,6.4v1.6c0,0.9,0.7,1.6,1.6,1.6h15.5
		C186.7,60.5,187.5,59.8,187.5,58.9z"/>
	<path class="st9" d="M214.8,62.6l-8.7,8.7c0.7,0.2,1.4,0.5,1.9,0.8c0,0,0.1,0.1,0.1,0.1l9.6-9.6L214.8,62.6
		C214.8,62.6,214.8,62.6,214.8,62.6z"/>
	<path class="st9" d="M192.7,72.2c0.6-0.3,1.2-0.6,1.9-0.8l-8.7-8.7c0,0,0,0-0.1,0h-2.9l9.6,9.6C192.6,72.2,192.6,72.2,192.7,72.2z"
		/>
	<path class="st9" d="M214.5,50.6l-7.6-7.6h-3l9,9C213.4,51.4,213.9,51,214.5,50.6z"/>
	<path class="st9" d="M187.8,52l9-9h-3l-7.6,7.6C186.8,51,187.3,51.4,187.8,52z"/>
</g>
<g>
	<g>
		<linearGradient id="SVGID_7_" gradientUnits="userSpaceOnUse" x1="8.2951" y1="8.2951" x2="91.7049" y2="91.7049">
			<stop  offset="0" style="stop-color:#FFFFFF"/>
			<stop  offset="1" style="stop-color:#E2E4E8"/>
		</linearGradient>
		<path class="st10" d="M83.8,95H16.2C10,95,5,90,5,83.8V16.2C5,10,10,5,16.2,5h67.5C90,5,95,10,95,16.2v67.5C95,90,90,95,83.8,95z"
			/>
		<linearGradient id="SVGID_8_" gradientUnits="userSpaceOnUse" x1="8.7758" y1="8.7758" x2="91.2242" y2="91.2242">
			<stop  offset="0" style="stop-color:#F1F2F4"/>
			<stop  offset="1" style="stop-color:#FFFFFF"/>
		</linearGradient>
		<path class="st11" d="M16.2,94.3c-5.8,0-10.6-4.7-10.6-10.6V16.2c0-5.8,4.7-10.6,10.6-10.6h67.5c5.8,0,10.6,4.7,10.6,10.6v67.5
			c0,5.8-4.7,10.6-10.6,10.6H16.2z"/>
	</g>
</g>
<g>
	<g>
		<g>
			<path class="st3" d="M83.2,45.2c0-14.9-12.1-27.1-27.1-27.1c-14.9,0-27.1,12.1-27.1,27.1c0,0.1,0,0.1,0,0.2c0,0,0,0,0,0
				l-4.7,10.9c-0.4,0.9-0.3,2,0.3,2.9c0.6,0.9,1.5,1.4,2.5,1.4h4.4v10.8c0,1.7,1.4,3,3,3c0.2,0,0.3,0,0.5,0l11.2-1.8V84
				c0,0.4,0.3,0.7,0.7,0.7h25.5c0.4,0,0.7-0.3,0.7-0.7V66.3C79.5,61.2,83.2,53.5,83.2,45.2z"/>
			<path class="st12" d="M74.5,38c0,6.6-8.3,11.9-18.5,11.9S37.5,44.6,37.5,38S45.8,23.7,56,23.7S74.5,31.4,74.5,38z"/>
		</g>
	</g>
	<g>
		<path class="st13" d="M64,31.9c0.8,0,1.5-0.7,1.5-1.6c0-0.9-0.7-1.6-1.6-1.6c-0.9,0-1.6,0.7-1.6,1.6c0,0.4,0.2,0.8,0.4,1.1
			l-1.2,2.9H58c0,0.1,0,0.2,0,0.4c0,0.1,0,0.2,0,0.4h3.3l-1,2.4c-0.2,0-0.4,0-0.5,0.1l-2.4-2.4c0.1-0.2,0.1-0.3,0.1-0.5
			c0-0.9-0.7-1.6-1.6-1.6c-0.9,0-1.6,0.7-1.6,1.6c0,0.2,0.1,0.4,0.1,0.6l-1.9,2.2c-0.1,0-0.3-0.1-0.5-0.1c-0.9,0-1.6,0.7-1.6,1.6
			c0,0.2,0,0.4,0.1,0.6l-2.3,2.3c-0.2-0.1-0.4-0.1-0.5-0.1c-0.9,0-1.6,0.7-1.6,1.6c0,0.9,0.7,1.6,1.6,1.6c0.9,0,1.6-0.7,1.6-1.6
			c0-0.2,0-0.4-0.1-0.6l2.3-2.3c0.2,0.1,0.4,0.1,0.5,0.1c0.9,0,1.6-0.7,1.6-1.6c0-0.2-0.1-0.4-0.1-0.6l1.9-2.2
			c0.1,0,0.3,0.1,0.5,0.1c0.2,0,0.4,0,0.6-0.1l2.4,2.4c-0.1,0.2-0.1,0.3-0.1,0.5c0,0.9,0.7,1.6,1.6,1.6c0.9,0,1.6-0.7,1.6-1.6
			c0-0.4-0.2-0.8-0.4-1.1l1.2-2.9h4.7v-0.7H63L64,31.9z M64.6,30.3c0,0.3-0.3,0.6-0.6,0.6c-0.3,0-0.6-0.3-0.6-0.6
			c0-0.3,0.3-0.6,0.6-0.6C64.3,29.7,64.6,30,64.6,30.3z M60.9,39c0,0.3-0.3,0.6-0.6,0.6c-0.3,0-0.6-0.3-0.6-0.6s0.3-0.6,0.6-0.6
			C60.7,38.4,60.9,38.7,60.9,39z M55.9,35.3c-0.3,0-0.6-0.3-0.6-0.6c0-0.3,0.3-0.6,0.6-0.6c0.3,0,0.6,0.3,0.6,0.6
			C56.5,35,56.2,35.3,55.9,35.3z M51.5,39c0-0.3,0.3-0.6,0.6-0.6c0.3,0,0.6,0.3,0.6,0.6s-0.3,0.6-0.6,0.6
			C51.8,39.6,51.5,39.3,51.5,39z M47.2,43.3c0-0.3,0.3-0.6,0.6-0.6s0.6,0.3,0.6,0.6s-0.3,0.6-0.6,0.6S47.2,43.7,47.2,43.3z"/>
		<path class="st13" d="M61.9,30.3c0-0.1,0-0.2,0-0.4H44.7v0.7h17.2C61.9,30.6,61.9,30.4,61.9,30.3z"/>
		<path class="st13" d="M66,29.9c0,0.1,0,0.2,0,0.4c0,0.1,0,0.2,0,0.4h1.4v-0.7H66z"/>
		<path class="st13" d="M53.8,34.7c0-0.1,0-0.2,0-0.4h-9.2V35h9.2C53.8,34.9,53.8,34.8,53.8,34.7z"/>
		<path class="st13" d="M62.4,39c0,0.1,0,0.2,0,0.4h5v-0.7h-5C62.4,38.7,62.4,38.9,62.4,39z"/>
		<path class="st13" d="M54.1,38.6c0,0.1,0,0.2,0,0.4s0,0.2,0,0.4h4.1c0-0.1,0-0.2,0-0.4s0-0.2,0-0.4H54.1z"/>
		<path class="st13" d="M50,39c0-0.1,0-0.2,0-0.4h-5.3v0.7h5.3C50,39.2,50,39.1,50,39z"/>
		<path class="st13" d="M44.7,43v0.7h1c0-0.1,0-0.2,0-0.4c0-0.1,0-0.2,0-0.4H44.7z"/>
		<path class="st13" d="M49.9,43.3c0,0.1,0,0.2,0,0.4h17.5V43H49.8C49.9,43.1,49.9,43.2,49.9,43.3z"/>
		<circle class="st12" cx="64" cy="30.3" r="0.6"/>
		<path class="st12" d="M56.5,34.7c0-0.3-0.3-0.6-0.6-0.6c-0.3,0-0.6,0.3-0.6,0.6c0,0.3,0.3,0.6,0.6,0.6
			C56.2,35.3,56.5,35,56.5,34.7z"/>
		<path class="st12" d="M59.7,39c0,0.3,0.3,0.6,0.6,0.6c0.3,0,0.6-0.3,0.6-0.6s-0.3-0.6-0.6-0.6C60,38.4,59.7,38.7,59.7,39z"/>
		<circle class="st12" cx="52.1" cy="39" r="0.6"/>
		<circle class="st12" cx="47.8" cy="43.3" r="0.6"/>
	</g>
</g>
</svg>
