<?xml version="1.0" encoding="utf-8"?>
<!-- Generator: Adobe Illustrator 22.0.1, SVG Export Plug-In . SVG Version: 6.00 Build 0)  -->
<svg version="1.1" id="Capa_1" xmlns="http://www.w3.org/2000/svg" xmlns:xlink="http://www.w3.org/1999/xlink" x="0px" y="0px"
	 viewBox="0 0 100 100" style="enable-background:new 0 0 100 100;" xml:space="preserve">
<style type="text/css">
	.st0{fill:url(#SVGID_1_);}
	.st1{fill:url(#SVGID_2_);}
	.st2{fill:#474244;}
	.st3{fill:#B53E45;}
	.st4{fill:url(#SVGID_3_);}
	.st5{fill:url(#SVGID_4_);}
	.st6{fill:#605C5E;}
	.st7{fill:url(#SVGID_5_);}
	.st8{fill:url(#SVGID_6_);}
	.st9{fill:#1E1A19;}
	.st10{fill:url(#SVGID_7_);}
	.st11{fill:url(#SVGID_8_);}
	.st12{fill:#FFFFFF;}
	.st13{fill:#443E44;}
</style>
<g>
	<g>
		<linearGradient id="SVGID_1_" gradientUnits="userSpaceOnUse" x1="8.2951" y1="8.2951" x2="91.7049" y2="91.7049">
			<stop  offset="0" style="stop-color:#FFFFFF"/>
			<stop  offset="1" style="stop-color:#E2E4E8"/>
		</linearGradient>
		<path class="st0" d="M83.8,95H16.2C10,95,5,90,5,83.8V16.2C5,10,10,5,16.2,5h67.5C90,5,95,10,95,16.2v67.5C95,90,90,95,83.8,95z"
			/>
		<linearGradient id="SVGID_2_" gradientUnits="userSpaceOnUse" x1="8.7758" y1="8.7758" x2="91.2242" y2="91.2242">
			<stop  offset="0" style="stop-color:#F1F2F4"/>
			<stop  offset="1" style="stop-color:#FFFFFF"/>
		</linearGradient>
		<path class="st1" d="M16.2,94.3c-5.8,0-10.6-4.7-10.6-10.6V16.2c0-5.8,4.7-10.6,10.6-10.6h67.5c5.8,0,10.6,4.7,10.6,10.6v67.5
			c0,5.8-4.7,10.6-10.6,10.6H16.2z"/>
	</g>
</g>
<g>
	<path class="st2" d="M23.3,36.7v36.1c0,3.9,3.2,7.1,7.1,7.1h39c3.9,0,7.1-3.2,7.1-7.1V45.6l-7.1,8.5v18.7h-39V47c0-0.5,0-0.9,0-1.4
		v-8.9h32.6l6-7.1H30.5C26.5,29.5,23.3,32.7,23.3,36.7z"/>
	<path class="st3" d="M41.3,43.4c-1.6-1.4-4-1.3-5.5,0.2c-1.6,1.6-1.6,4.1-0.1,5.7l14.5,14.8l3.7,3.8l3.3-4.2l12.2-15.5l7.1-9.1
		L88.5,24c1-1.3,0.9-3.2-0.4-4.4c-1.3-1.2-3.3-1.1-4.5,0.2l-9.9,11l-5.2,5.8l-15.3,17L41.3,43.4z"/>
</g>
<g>
	<g>
		<linearGradient id="SVGID_3_" gradientUnits="userSpaceOnUse" x1="152.1281" y1="10.6925" x2="235.5379" y2="94.1024">
			<stop  offset="0" style="stop-color:#FFFFFF"/>
			<stop  offset="1" style="stop-color:#E2E4E8"/>
		</linearGradient>
		<path class="st4" d="M227.6,97.4h-67.5c-6.2,0-11.2-5-11.2-11.2V18.6c0-6.2,5-11.2,11.2-11.2h67.5c6.2,0,11.2,5,11.2,11.2v67.5
			C238.8,92.4,233.8,97.4,227.6,97.4z"/>
		<linearGradient id="SVGID_4_" gradientUnits="userSpaceOnUse" x1="152.6088" y1="11.1733" x2="235.0571" y2="93.6216">
			<stop  offset="0" style="stop-color:#F1F2F4"/>
			<stop  offset="1" style="stop-color:#FFFFFF"/>
		</linearGradient>
		<path class="st5" d="M160.1,96.7c-5.8,0-10.6-4.7-10.6-10.6V18.6c0-5.8,4.7-10.6,10.6-10.6h67.5c5.8,0,10.6,4.7,10.6,10.6v67.5
			c0,5.8-4.7,10.6-10.6,10.6H160.1z"/>
	</g>
</g>
<g>
	<g>
		<g>
			<path class="st3" d="M3634.3,1916.3c-0.5,0-0.9,0.4-0.9,0.9v18.9c0,0.5,0.4,0.9,0.9,0.9h8.5c0.5,0,0.9-0.4,0.9-0.9v-18.9
				c0-0.5-0.4-0.9-0.9-0.9H3634.3z"/>
			<path class="st3" d="M3648.1,1908.3c-0.5,0-0.9,0.4-0.9,0.9v26.9c0,0.5,0.4,0.9,0.9,0.9h8.5c0.5,0,0.9-0.4,0.9-0.9v-26.9
				c0-0.5-0.4-0.9-0.9-0.9H3648.1z"/>
			<path class="st3" d="M3661.9,1911.2c-0.5,0-0.9,0.4-0.9,0.9v23.9c0,0.5,0.4,0.9,0.9,0.9h8.5c0.5,0,0.9-0.4,0.9-0.9v-23.9
				c0-0.5-0.4-0.9-0.9-0.9H3661.9z"/>
			<path class="st6" d="M3675.6,1904c-0.5,0-0.9,0.4-0.9,0.9v31.2c0,0.5,0.4,0.9,0.9,0.9h8.5c0.5,0,0.9-0.4,0.9-0.9v-31.2
				c0-0.5-0.4-0.9-0.9-0.9H3675.6z"/>
			<path class="st6" d="M3636.5,1902.1c1.9-1.1,4.4-0.5,5.6,1.5c1.1,1.9,0.5,4.4-1.5,5.6c0,0,0,0,0,0c-1.9,1.1-4.4,0.5-5.6-1.5
				C3633.9,1905.7,3634.6,1903.2,3636.5,1902.1C3636.5,1902.1,3636.5,1902.1,3636.5,1902.1z"/>
			<path class="st6" d="M3650.3,1893.9c1.9-1.1,4.4-0.5,5.6,1.5c1.1,1.9,0.5,4.4-1.5,5.6c0,0,0,0,0,0c-1.9,1.1-4.4,0.5-5.6-1.5
				S3648.3,1895.1,3650.3,1893.9C3650.3,1893.9,3650.3,1893.9,3650.3,1893.9z"/>
			<path class="st6" d="M3664.1,1897.1c1.9-1.1,4.4-0.5,5.6,1.5c1.1,1.9,0.5,4.4-1.5,5.6c0,0,0,0,0,0c-1.9,1.1-4.4,0.5-5.6-1.5
				C3661.4,1900.7,3662.1,1898.2,3664.1,1897.1C3664,1897.1,3664,1897.1,3664.1,1897.1z"/>
			<path class="st6" d="M3677.8,1889.9c1.9-1.1,4.4-0.5,5.6,1.5c1.1,1.9,0.5,4.4-1.5,5.6c0,0,0,0,0,0c-1.9,1.1-4.4,0.5-5.6-1.5
				C3675.2,1893.5,3675.9,1891.1,3677.8,1889.9C3677.8,1889.9,3677.8,1889.9,3677.8,1889.9z"/>
			<path class="st6" d="M3652.3,1896.4c-0.2,0-0.3,0-0.5,0.1l-13.4,8c-0.4,0.3-0.6,0.8-0.3,1.3s0.8,0.6,1.3,0.3l0,0l13.4-8
				c0.4-0.3,0.6-0.8,0.3-1.3C3652.9,1896.6,3652.7,1896.4,3652.3,1896.4z"/>
			<path class="st6" d="M3652.5,1896.5c-0.5,0-0.9,0.5-0.9,1c0,0.4,0.3,0.7,0.7,0.8l13.3,3.2c0.5,0.1,1-0.2,1.1-0.7
				c0.1-0.5-0.2-1-0.7-1.1c0,0,0,0,0,0l-13.3-3.2C3652.7,1896.5,3652.6,1896.5,3652.5,1896.5z"/>
			<path class="st6" d="M3679.8,1892.5c-0.1,0-0.3,0-0.4,0.1l-13.4,7.2c-0.4,0.2-0.6,0.8-0.4,1.2s0.8,0.6,1.2,0.4l13.4-7.2
				c0.4-0.2,0.6-0.8,0.4-1.2C3680.4,1892.7,3680.1,1892.5,3679.8,1892.5z"/>
		</g>
	</g>
</g>
<g>
	<g>
		<linearGradient id="SVGID_5_" gradientUnits="userSpaceOnUse" x1="445.0501" y1="10.5801" x2="528.46" y2="93.99">
			<stop  offset="0" style="stop-color:#FFFFFF"/>
			<stop  offset="1" style="stop-color:#E2E4E8"/>
		</linearGradient>
		<path class="st7" d="M520.5,97.3H453c-6.2,0-11.2-5-11.2-11.2V18.5c0-6.2,5-11.2,11.2-11.2h67.5c6.2,0,11.2,5,11.2,11.2V86
			C531.8,92.2,526.7,97.3,520.5,97.3z"/>
		<linearGradient id="SVGID_6_" gradientUnits="userSpaceOnUse" x1="445.5309" y1="11.0609" x2="527.9792" y2="93.5092">
			<stop  offset="0" style="stop-color:#F1F2F4"/>
			<stop  offset="1" style="stop-color:#FFFFFF"/>
		</linearGradient>
		<path class="st8" d="M453,96.6c-5.8,0-10.6-4.7-10.6-10.6V18.5c0-5.8,4.7-10.6,10.6-10.6h67.5c5.8,0,10.6,4.7,10.6,10.6V86
			c0,5.8-4.7,10.6-10.6,10.6H453z"/>
	</g>
</g>
<g>
	<circle class="st3" cx="487.9" cy="70" r="4.7"/>
	<path class="st3" d="M487.9,76L487.9,76c-5.2,0-9.4,1.2-9.4,6.4V84c0,0.9,0.7,1.6,1.6,1.6h15.5c0.9,0,1.6-0.7,1.6-1.6v-1.6
		C497.3,77.2,493.1,76,487.9,76z"/>
	<ellipse transform="matrix(0.9845 -0.1753 0.1753 0.9845 2.554 85.9565)" class="st3" cx="487.9" cy="28.5" rx="4.7" ry="4.7"/>
	<path class="st3" d="M480.2,44.1h15.5c0.9,0,1.6-0.7,1.6-1.6v-1.6c0-5.2-4.2-6.4-9.4-6.4l0,0c-5.2,0-9.4,1.2-9.4,6.4v1.6
		C478.5,43.4,479.2,44.1,480.2,44.1z"/>
	<circle class="st6" cx="510.4" cy="47.9" r="4.7"/>
	<path class="st6" d="M510.4,53.8L510.4,53.8c-5.2,0-9.4,1.2-9.4,6.4v1.6c0,0.9,0.7,1.6,1.6,1.6h15.5c0.9,0,1.6-0.7,1.6-1.6v-1.6
		C519.8,55.1,515.6,53.8,510.4,53.8z"/>
	<circle class="st6" cx="465.9" cy="47.9" r="4.7"/>
	<path class="st6" d="M475.3,61.9v-1.6c0-5.2-4.2-6.4-9.4-6.4l0,0c-5.2,0-9.4,1.2-9.4,6.4v1.6c0,0.9,0.7,1.6,1.6,1.6h15.5
		C474.5,63.5,475.3,62.8,475.3,61.9z"/>
	<path class="st9" d="M502.6,65.6l-8.7,8.7c0.7,0.2,1.4,0.5,1.9,0.8c0,0,0.1,0.1,0.1,0.1l9.6-9.6L502.6,65.6
		C502.6,65.6,502.6,65.6,502.6,65.6z"/>
	<path class="st9" d="M480.5,75.2c0.6-0.3,1.2-0.6,1.9-0.8l-8.7-8.7c0,0,0,0-0.1,0h-2.9l9.6,9.6C480.4,75.2,480.4,75.2,480.5,75.2z"
		/>
	<path class="st9" d="M502.3,53.6l-7.6-7.6h-3l9,9C501.2,54.4,501.7,53.9,502.3,53.6z"/>
	<path class="st9" d="M475.6,55l9-9h-3l-7.6,7.6C474.6,53.9,475.1,54.4,475.6,55z"/>
</g>
<g>
	<g>
		<linearGradient id="SVGID_7_" gradientUnits="userSpaceOnUse" x1="296.0988" y1="11.2746" x2="379.5087" y2="94.6845">
			<stop  offset="0" style="stop-color:#FFFFFF"/>
			<stop  offset="1" style="stop-color:#E2E4E8"/>
		</linearGradient>
		<path class="st10" d="M371.6,98h-67.5c-6.2,0-11.2-5-11.2-11.2V19.2c0-6.2,5-11.2,11.2-11.2h67.5c6.2,0,11.2,5,11.2,11.2v67.5
			C382.8,92.9,377.8,98,371.6,98z"/>
		<linearGradient id="SVGID_8_" gradientUnits="userSpaceOnUse" x1="296.5796" y1="11.7554" x2="379.0279" y2="94.2037">
			<stop  offset="0" style="stop-color:#F1F2F4"/>
			<stop  offset="1" style="stop-color:#FFFFFF"/>
		</linearGradient>
		<path class="st11" d="M304.1,97.3c-5.8,0-10.6-4.7-10.6-10.6V19.2c0-5.8,4.7-10.6,10.6-10.6h67.5c5.8,0,10.6,4.7,10.6,10.6v67.5
			c0,5.8-4.7,10.6-10.6,10.6H304.1z"/>
	</g>
</g>
<g>
	<g>
		<g>
			<path class="st3" d="M371,48.2c0-14.9-12.1-27.1-27.1-27.1c-14.9,0-27.1,12.1-27.1,27.1c0,0.1,0,0.1,0,0.2c0,0,0,0,0,0l-4.7,10.9
				c-0.4,0.9-0.3,2,0.3,2.9c0.6,0.9,1.5,1.4,2.5,1.4h4.4v10.8c0,1.7,1.4,3,3,3c0.2,0,0.3,0,0.5,0l11.2-1.8V87c0,0.4,0.3,0.7,0.7,0.7
				h25.5c0.4,0,0.7-0.3,0.7-0.7V69.3C367.3,64.1,371,56.5,371,48.2z"/>
			<path class="st12" d="M362.3,40.9c0,6.6-8.3,11.9-18.5,11.9s-18.5-5.3-18.5-11.9s8.3-14.2,18.5-14.2S362.3,34.3,362.3,40.9z"/>
		</g>
	</g>
	<g>
		<path class="st13" d="M351.8,34.8c0.8,0,1.5-0.7,1.5-1.6c0-0.9-0.7-1.6-1.6-1.6c-0.9,0-1.6,0.7-1.6,1.6c0,0.4,0.2,0.8,0.4,1.1
			l-1.2,2.9h-3.6c0,0.1,0,0.2,0,0.4c0,0.1,0,0.2,0,0.4h3.3l-1,2.4c-0.2,0-0.4,0-0.5,0.1l-2.4-2.4c0.1-0.2,0.1-0.3,0.1-0.5
			c0-0.9-0.7-1.6-1.6-1.6c-0.9,0-1.6,0.7-1.6,1.6c0,0.2,0.1,0.4,0.1,0.6l-1.9,2.2c-0.1,0-0.3-0.1-0.5-0.1c-0.9,0-1.6,0.7-1.6,1.6
			c0,0.2,0,0.4,0.1,0.6l-2.3,2.3c-0.2-0.1-0.4-0.1-0.5-0.1c-0.9,0-1.6,0.7-1.6,1.6c0,0.9,0.7,1.6,1.6,1.6s1.6-0.7,1.6-1.6
			c0-0.2,0-0.4-0.1-0.6l2.3-2.3c0.2,0.1,0.4,0.1,0.5,0.1c0.9,0,1.6-0.7,1.6-1.6c0-0.2-0.1-0.4-0.1-0.6l1.9-2.2
			c0.1,0,0.3,0.1,0.5,0.1c0.2,0,0.4,0,0.6-0.1l2.4,2.4c-0.1,0.2-0.1,0.3-0.1,0.5c0,0.9,0.7,1.6,1.6,1.6c0.9,0,1.6-0.7,1.6-1.6
			c0-0.4-0.2-0.8-0.4-1.1l1.2-2.9h4.7v-0.7h-4.4L351.8,34.8z M352.4,33.3c0,0.3-0.3,0.6-0.6,0.6c-0.3,0-0.6-0.3-0.6-0.6
			s0.3-0.6,0.6-0.6C352.1,32.7,352.4,33,352.4,33.3z M348.7,42c0,0.3-0.3,0.6-0.6,0.6c-0.3,0-0.6-0.3-0.6-0.6c0-0.3,0.3-0.6,0.6-0.6
			C348.5,41.4,348.7,41.6,348.7,42z M343.7,38.2c-0.3,0-0.6-0.3-0.6-0.6c0-0.3,0.3-0.6,0.6-0.6c0.3,0,0.6,0.3,0.6,0.6
			C344.3,38,344,38.2,343.7,38.2z M339.3,42c0-0.3,0.3-0.6,0.6-0.6c0.3,0,0.6,0.3,0.6,0.6c0,0.3-0.3,0.6-0.6,0.6
			C339.6,42.6,339.3,42.3,339.3,42z M335,46.3c0-0.3,0.3-0.6,0.6-0.6c0.3,0,0.6,0.3,0.6,0.6c0,0.3-0.3,0.6-0.6,0.6
			C335.3,46.9,335,46.6,335,46.3z"/>
		<path class="st13" d="M349.7,33.3c0-0.1,0-0.2,0-0.4h-17.2v0.7h17.2C349.7,33.5,349.7,33.4,349.7,33.3z"/>
		<path class="st13" d="M353.8,32.9c0,0.1,0,0.2,0,0.4c0,0.1,0,0.2,0,0.4h1.4v-0.7H353.8z"/>
		<path class="st13" d="M341.6,37.6c0-0.1,0-0.2,0-0.4h-9.2V38h9.2C341.6,37.9,341.6,37.8,341.6,37.6z"/>
		<path class="st13" d="M350.2,42c0,0.1,0,0.2,0,0.4h5v-0.7h-5C350.2,41.7,350.2,41.8,350.2,42z"/>
		<path class="st13" d="M342,41.6c0,0.1,0,0.2,0,0.4s0,0.2,0,0.4h4.1c0-0.1,0-0.2,0-0.4s0-0.2,0-0.4H342z"/>
		<path class="st13" d="M337.8,42c0-0.1,0-0.2,0-0.4h-5.3v0.7h5.3C337.8,42.2,337.8,42.1,337.8,42z"/>
		<path class="st13" d="M332.5,45.9v0.7h1c0-0.1,0-0.2,0-0.4c0-0.1,0-0.2,0-0.4H332.5z"/>
		<path class="st13" d="M337.7,46.3c0,0.1,0,0.2,0,0.4h17.5v-0.7h-17.5C337.7,46.1,337.7,46.2,337.7,46.3z"/>
		<circle class="st12" cx="351.8" cy="33.3" r="0.6"/>
		<path class="st12" d="M344.3,37.6c0-0.3-0.3-0.6-0.6-0.6c-0.3,0-0.6,0.3-0.6,0.6c0,0.3,0.3,0.6,0.6,0.6
			C344,38.2,344.3,38,344.3,37.6z"/>
		<path class="st12" d="M347.5,42c0,0.3,0.3,0.6,0.6,0.6c0.3,0,0.6-0.3,0.6-0.6c0-0.3-0.3-0.6-0.6-0.6
			C347.8,41.4,347.5,41.6,347.5,42z"/>
		<circle class="st12" cx="339.9" cy="42" r="0.6"/>
		<circle class="st12" cx="335.6" cy="46.3" r="0.6"/>
	</g>
</g>
</svg>
