<?xml version="1.0" encoding="utf-8"?>
<!-- Generator: Adobe Illustrator 22.0.1, SVG Export Plug-In . SVG Version: 6.00 Build 0)  -->
<svg version="1.1" id="Capa_1" xmlns="http://www.w3.org/2000/svg" xmlns:xlink="http://www.w3.org/1999/xlink" x="0px" y="0px"
	 viewBox="0 0 350 350" style="enable-background:new 0 0 350 350;" xml:space="preserve">
<style type="text/css">
	.st0{fill:#222220;}
	.st1{fill:none;stroke:#FFFFFF;stroke-width:4;stroke-miterlimit:10;}
	.st2{fill:#FFFFFF;}
	.st3{fill:none;stroke:#FFFFFF;stroke-width:0.5;stroke-miterlimit:10;}
</style>
<g>
	<g>
		<g>
			<path class="st0" d="M85.8,248.3l5.3,17.6l5.2-17.6h3.6l5.3,17.6l5.2-17.6h3.8l-7.2,21.6h-3.7l-5.1-16.9l-5.2,16.9h-3.8
				l-7.2-21.6H85.8z"/>
			<path class="st0" d="M129.2,265.1h-10.9l-2.1,4.9h-3.8l9.6-21.6h3.7l9.5,21.6h-3.9L129.2,265.1z M127.8,261.8l-4.1-9.6l-4.1,9.6
				H127.8z"/>
			<path class="st0" d="M151.7,269.9l-4-6.6c-0.3,0-0.6,0-1,0h-5.1v6.5H138v-21.6h8.8c5.5,0,8.7,2.7,8.7,7.4c0,3.5-1.6,5.9-4.5,7
				l4.9,7.2H151.7z M146.8,260.1c3.3,0,5.3-1.4,5.3-4.4c0-2.8-1.9-4.2-5.3-4.2h-5.1v8.6H146.8z"/>
			<path class="st0" d="M183.4,269.9l-4-6.6c-0.3,0-0.6,0-1,0h-5.1v6.5h-3.6v-21.6h8.8c5.5,0,8.7,2.7,8.7,7.4c0,3.5-1.6,5.9-4.5,7
				l4.9,7.2H183.4z M178.4,260.1c3.3,0,5.3-1.4,5.3-4.4c0-2.8-1.9-4.2-5.3-4.2h-5.1v8.6H178.4z"/>
			<path class="st0" d="M213.1,259.1c0,6.2-5,11-11.5,11s-11.5-4.8-11.5-11c0-6.2,5-10.9,11.5-10.9S213.1,252.9,213.1,259.1z
				 M193.9,259.1c0,4.3,3.6,7.7,7.8,7.7c4.2,0,7.7-3.4,7.7-7.7c0-4.3-3.5-7.6-7.7-7.6C197.4,251.5,193.9,254.8,193.9,259.1z"/>
			<path class="st0" d="M237.3,259.1c0,6.2-5,11-11.5,11s-11.5-4.8-11.5-11c0-6.2,5-10.9,11.5-10.9S237.3,252.9,237.3,259.1z
				 M218.1,259.1c0,4.3,3.6,7.7,7.8,7.7c4.2,0,7.7-3.4,7.7-7.7c0-4.3-3.5-7.6-7.7-7.6C221.6,251.5,218.1,254.8,218.1,259.1z"/>
			<path class="st0" d="M245.5,248.3l7.1,14.4l7.1-14.4h4.3v21.6h-3.4l0-16.2l-6.8,13.9h-2.4l-6.8-13.9v16.2h-3.4v-21.6H245.5z"/>
		</g>
		<circle class="st1" cx="175.5" cy="114.2" r="74"/>
		<g>
			<g>
				<g>
					<path class="st2" d="M145.8,149.6c-1,0-1.8-0.8-1.8-1.8v-13.6c0-0.5-0.4-0.9-0.9-0.9H135c-1,0-1.8-0.8-1.8-1.8v-10.8
						c0,0,0-0.1,0-0.2c0-0.2,0-0.4,0.1-0.6c0-0.1,0.1-0.1,0.1-0.1l0-0.1c0-0.1,0.1-0.2,0.1-0.2l16.2-21.7c0.3-0.5,0.9-0.7,1.5-0.7
						h3.9c0.2,0,0.5-0.1,0.6-0.3l30.9-31.4c0.3-0.3,0.8-0.5,1.3-0.5c0.5,0,1,0.2,1.3,0.5l20.1,20.4c0.7,0.7,0.7,1.9,0,2.6l-8,8.2
						c-0.3,0.3-0.3,0.9,0,1.2c0.1,0.1,0.1,0.1,0.2,0.2l16.2,21.6c0,0,0.1,0.1,0.1,0.2l0,0.1c0,0,0.1,0.1,0.1,0.1
						c0.1,0.2,0.1,0.4,0.1,0.6c0,0.1,0,0.1,0,0.2v10.8c0,1-0.8,1.8-1.8,1.8H208c-0.5,0-0.9,0.4-0.9,0.9v13.6c0,1-0.8,1.8-1.8,1.8
						H145.8z M148.5,133.4c-0.5,0-0.9,0.4-0.9,0.9v10.9c0,0.5,0.4,0.9,0.9,0.9h54.1c0.5,0,0.9-0.4,0.9-0.9v-10.9
						c0-0.5-0.4-0.9-0.9-0.9H148.5z M137.7,122.5c-0.5,0-0.9,0.4-0.9,0.9v5.4c0,0.5,0.4,0.9,0.9,0.9h75.7c0.5,0,0.9-0.4,0.9-0.9
						v-5.4c0-0.5-0.4-0.9-0.9-0.9H137.7z M152.5,100.8c-0.3,0-0.5,0.1-0.7,0.4l-12.2,16.3c-0.2,0.3-0.2,0.6-0.1,0.9
						c0.2,0.3,0.5,0.5,0.8,0.5h70.3c0.3,0,0.6-0.2,0.8-0.5c0.2-0.3,0.1-0.7-0.1-0.9l-12.2-16.3c-0.2-0.2-0.4-0.4-0.7-0.4h-1
						c-0.2,0-0.5,0.1-0.6,0.3l-5.6,5.7c-0.3,0.3-0.3,0.6-0.2,1c0.1,0.3,0.5,0.5,0.8,0.5h5.3c1,0,1.8,0.8,1.8,1.8s-0.8,1.8-1.8,1.8
						h-43.3c-1,0-1.8-0.8-1.8-1.8s0.8-1.8,1.8-1.8h7.6c0.4,0,0.7-0.2,0.8-0.5c0.1-0.3,0.1-0.7-0.2-1l-5.6-5.7
						c-0.2-0.2-0.4-0.3-0.6-0.3H152.5z M187.9,69.7c-0.2,0-0.5,0.1-0.6,0.3l-27.5,28c-0.3,0.3-0.3,0.9,0,1.2l8.7,8.8
						c0.2,0.2,0.4,0.3,0.6,0.3h15.2c0.2,0,0.5-0.1,0.6-0.3l20-20.3c0.3-0.3,0.3-0.9,0-1.2l-16.3-16.5
						C188.4,69.8,188.2,69.7,187.9,69.7z"/>
				</g>
				<g>
					<rect x="192.6" y="137.8" class="st2" width="3.6" height="3.7"/>
				</g>
				<g>
					<rect x="181.8" y="137.8" class="st2" width="3.6" height="3.7"/>
				</g>
				<g>
					<path class="st2" d="M172.8,98.4c-0.5,0-0.9-0.2-1.3-0.5c-0.7-0.7-0.7-1.9,0-2.6l13.5-13.6c0.3-0.3,0.8-0.5,1.3-0.5
						c0.5,0,0.9,0.2,1.3,0.5c0.7,0.7,0.7,1.9,0,2.6l-13.5,13.6C173.8,98.2,173.3,98.4,172.8,98.4z"/>
				</g>
			</g>
		</g>
		<g>
			<path class="st2" d="M92.6,278v2.2h-7.9v3.9h7v2.2h-7v4h8.1v2.2H82.3V278H92.6z"/>
			<path class="st2" d="M98.3,278v12.2h6.2v2.2h-8.7V278H98.3z"/>
			<path class="st2" d="M117.2,278v2.2h-7.9v3.9h7v2.2h-7v4h8.1v2.2h-10.6V278H117.2z"/>
			<path class="st2" d="M126.8,280.1c-2.9,0-5.2,2.2-5.2,5.1c0,2.8,2.3,5.1,5.2,5.1c1.4,0,2.9-0.7,4-1.7l1.4,1.6
				c-1.5,1.4-3.5,2.4-5.6,2.4c-4.2,0-7.5-3.2-7.5-7.3c0-4.1,3.3-7.3,7.6-7.3c2,0,4.1,0.8,5.5,2.2l-1.4,1.8
				C129.8,280.8,128.3,280.1,126.8,280.1z"/>
			<path class="st2" d="M140.9,280.1c-2.9,0-5.2,2.2-5.2,5.1c0,2.8,2.3,5.1,5.2,5.1c1.4,0,2.9-0.7,4-1.7l1.4,1.6
				c-1.5,1.4-3.5,2.4-5.6,2.4c-4.2,0-7.5-3.2-7.5-7.3c0-4.1,3.3-7.3,7.6-7.3c2,0,4.1,0.8,5.5,2.2l-1.4,1.8
				C143.8,280.8,142.3,280.1,140.9,280.1z"/>
			<path class="st2" d="M151.2,278v14.4h-2.4V278H151.2z"/>
			<path class="st2" d="M169.1,285.3c0,4.1-3.3,7.3-7.6,7.3s-7.6-3.2-7.6-7.3c0-4.1,3.3-7.3,7.6-7.3S169.1,281.1,169.1,285.3z
				 M156.3,285.3c0,2.9,2.4,5.1,5.2,5.1s5.1-2.3,5.1-5.1s-2.3-5.1-5.1-5.1C158.7,280.2,156.3,282.4,156.3,285.3z"/>
			<path class="st2" d="M174.1,278l7.7,10.4V278h2.4v14.4h-2.4l-7.7-10.3v10.3h-2.4V278H174.1z"/>
			<path class="st2" d="M198.4,278v2.2h-7.9v3.9h7v2.2h-7v4h8.1v2.2h-10.6V278H198.4z"/>
			<path class="st2" d="M206.1,280.2c-1.4,0-2.3,0.5-2.3,1.5c0,3.2,7.8,1.5,7.8,6.7c0,2.6-2.3,4.2-5.4,4.2c-2.3,0-4.4-0.9-5.9-2.3
				l1.1-2.1c1.5,1.4,3.3,2.1,4.9,2.1c1.7,0,2.7-0.6,2.7-1.8c0-3.2-7.8-1.4-7.8-6.6c0-2.5,2.1-4,5.3-4c1.9,0,3.7,0.6,5.1,1.5l-1,2.1
				C208.8,280.6,207.2,280.2,206.1,280.2z"/>
			<path class="st0" d="M227.1,281.9c0-1.2-0.9-1.9-2.5-1.9c-1.3,0-2.8,0.7-4.1,1.8l-1-1.9c1.6-1.3,3.5-2.1,5.4-2.1
				c2.8,0,4.7,1.4,4.7,3.6c0,1.4-1.1,3.1-2.7,4.7l-4,4h7.4v2.2h-10.6v-1.8l5.5-5.7C226.4,283.9,227.1,282.7,227.1,281.9z"/>
			<path class="st0" d="M243.2,285.2c0,4.7-1.9,7.3-5.4,7.3c-3.5,0-5.4-2.6-5.4-7.3c0-4.7,1.9-7.3,5.4-7.3
				C241.3,278,243.2,280.6,243.2,285.2z M234.7,285.2c0,3.7,1,5.4,3,5.4c2,0,3-1.7,3-5.4c0-3.7-1-5.4-3-5.4
				C235.8,279.9,234.7,281.6,234.7,285.2z"/>
			<path class="st0" d="M251.9,278v14.5h-2.4v-12.3h-3.1V278H251.9z"/>
			<path class="st0" d="M268,281.7c0,1.4-0.8,2.5-2.1,3.1c1.7,0.6,2.8,1.9,2.8,3.7c0,2.6-2.1,4.2-5.5,4.2s-5.5-1.6-5.5-4.1
				c0-1.8,1.1-3.1,2.9-3.7c-1.4-0.6-2.2-1.8-2.2-3.2c0-2.2,1.9-3.6,4.8-3.6C266.2,277.9,268,279.3,268,281.7z M260,288.2
				c0,1.6,1.2,2.5,3.2,2.5c2,0,3.2-0.9,3.2-2.5c0-1.5-1.2-2.4-3.2-2.4C261.2,285.8,260,286.7,260,288.2z M260.5,281.8
				c0,1.3,1,2.1,2.7,2.1s2.7-0.8,2.7-2.1s-1-2.1-2.7-2.1S260.5,280.5,260.5,281.8z"/>
		</g>
		<g>
			<path class="st0" d="M165,200.9l-10.3,30.7h-4.6l-8.4-24.5l-8.4,24.5h-4.7l-10.3-30.7h4.5l8.3,24.9l8.6-24.9h4l8.5,25.1l8.5-25.1
				H165z"/>
			<path class="st0" d="M190.8,231.6l-6.6-9.4c-0.6,0-1.3,0.1-1.9,0.1h-7.6v9.3h-4.4v-30.7h12c8,0,12.8,4,12.8,10.7
				c0,4.7-2.5,8.1-6.7,9.7l7.3,10.3H190.8z M190.7,211.6c0-4.4-2.9-6.9-8.5-6.9h-7.4v13.8h7.4C187.7,218.5,190.7,216,190.7,211.6z"
				/>
			<path class="st2" d="M209.2,200.9v30.7h-4.3v-26.9h-6.9v-3.8H209.2z"/>
			<path class="st2" d="M240,222.9c0,5.6-4.7,9-12.2,9c-7.4,0-12.1-3.5-12.1-9c0-3.5,1.9-6.1,5.4-7.4c-2.8-1.3-4.3-3.6-4.3-6.6
				c0-5.1,4.4-8.3,11-8.3c6.7,0,11.1,3.2,11.1,8.3c0,3-1.5,5.3-4.3,6.6C238.1,216.9,240,219.4,240,222.9z M235.7,222.8
				c0-3.4-3-5.5-7.8-5.5c-4.9,0-7.8,2.1-7.8,5.5c0,3.5,2.9,5.6,7.8,5.6C232.7,228.4,235.7,226.3,235.7,222.8z M221.1,209.1
				c0,3,2.5,4.9,6.7,4.9c4.2,0,6.8-1.9,6.8-4.9c0-3.1-2.7-5-6.8-5S221.1,206,221.1,209.1z"/>
		</g>
	</g>
	<g>
		<path class="st3" d="M252.9,196.5c3,0,5.5,2.5,5.5,5.5c0,3-2.5,5.5-5.5,5.5c-3,0-5.4-2.5-5.4-5.5
			C247.4,198.9,249.9,196.5,252.9,196.5z"/>
		<path class="st2" d="M251.4,202.6c0,1,0,2,0,3c-0.4,0-0.8,0-1.1,0c0-2.4,0-4.7,0-7.1c0,0,0.1,0,0.1,0c1,0,2,0,3,0
			c0.4,0,0.8,0.1,1.1,0.2c0.6,0.2,1.1,0.9,1.2,1.6c0.1,1-0.7,1.9-1.6,2c-0.1,0-0.2,0-0.3,0.1c0,0,0,0,0,0c0.4,0.2,0.7,0.5,1,0.8
			c0.4,0.6,0.8,1.2,1.2,1.8c0.1,0.1,0.2,0.3,0.3,0.5c-0.1,0-0.1,0-0.1,0c-0.4,0-0.8,0-1.2,0c-0.1,0-0.1,0-0.2-0.1
			c-0.3-0.6-0.7-1.2-1-1.8c-0.2-0.3-0.4-0.5-0.6-0.7c-0.2-0.2-0.5-0.3-0.8-0.4C252,202.6,251.7,202.6,251.4,202.6z M251.4,201.6
			c0,0,0.1,0,0.1,0c0.5,0,1.1,0,1.6,0c0.2,0,0.4,0,0.6-0.1c0.4-0.1,0.6-0.3,0.7-0.7c0.1-0.4,0-0.7-0.3-1c-0.2-0.2-0.5-0.3-0.8-0.3
			c-0.6,0-1.3,0-1.9,0c0,0,0,0-0.1,0C251.4,200.2,251.4,200.9,251.4,201.6z"/>
	</g>
</g>
</svg>
