<?xml version="1.0" encoding="utf-8"?>
<!-- Generator: Adobe Illustrator 22.0.1, SVG Export Plug-In . SVG Version: 6.00 Build 0)  -->
<svg version="1.1" id="Capa_1" xmlns="http://www.w3.org/2000/svg" xmlns:xlink="http://www.w3.org/1999/xlink" x="0px" y="0px"
	 viewBox="0 0 450 90" style="enable-background:new 0 0 450 90;" xml:space="preserve">
<style type="text/css">
	.st0{fill:none;stroke:#FFFFFF;stroke-width:2;stroke-miterlimit:10;}
	.st1{fill:#FFFFFF;}
	.st2{fill-rule:evenodd;clip-rule:evenodd;fill:#FFFFFF;}
</style>
<g>
	<g>
		<circle class="st0" cx="54.9" cy="45" r="41.4"/>
		<g>
			<g>
				<g>
					<path class="st1" d="M38.3,64.9c-0.6,0-1-0.5-1-1v-7.6c0-0.3-0.2-0.5-0.5-0.5h-4.5c-0.6,0-1-0.5-1-1v-6c0,0,0-0.1,0-0.1
						c0-0.1,0-0.2,0.1-0.3c0,0,0-0.1,0-0.1l0,0c0-0.1,0-0.1,0.1-0.1l9.1-12.2c0.2-0.3,0.5-0.4,0.8-0.4h2.2c0.1,0,0.3-0.1,0.4-0.1
						l17.3-17.6c0.2-0.2,0.5-0.3,0.7-0.3c0.3,0,0.5,0.1,0.7,0.3l11.2,11.4c0.4,0.4,0.4,1,0,1.4l-4.5,4.6c-0.2,0.2-0.2,0.5,0,0.7
						c0,0,0.1,0.1,0.1,0.1l9,12.1c0,0,0,0.1,0.1,0.1l0,0c0,0,0,0.1,0,0.1c0,0.1,0.1,0.2,0.1,0.3c0,0,0,0.1,0,0.1v6c0,0.6-0.5,1-1,1
						h-4.5c-0.3,0-0.5,0.2-0.5,0.5v7.6c0,0.6-0.5,1-1,1H38.3z M39.8,55.7c-0.3,0-0.5,0.2-0.5,0.5v6.1c0,0.3,0.2,0.5,0.5,0.5h30.3
						c0.3,0,0.5-0.2,0.5-0.5v-6.1c0-0.3-0.2-0.5-0.5-0.5H39.8z M33.7,49.7c-0.3,0-0.5,0.2-0.5,0.5v3c0,0.3,0.2,0.5,0.5,0.5h42.4
						c0.3,0,0.5-0.2,0.5-0.5v-3c0-0.3-0.2-0.5-0.5-0.5H33.7z M42.1,37.5c-0.2,0-0.3,0.1-0.4,0.2l-6.8,9.1c-0.1,0.2-0.1,0.4,0,0.5
						c0.1,0.2,0.3,0.3,0.4,0.3h39.4c0.2,0,0.4-0.1,0.4-0.3c0.1-0.2,0.1-0.4,0-0.5l-6.8-9.1c-0.1-0.1-0.2-0.2-0.4-0.2h-0.6
						c-0.1,0-0.3,0.1-0.4,0.1l-3.2,3.2c-0.1,0.1-0.2,0.4-0.1,0.5c0.1,0.2,0.3,0.3,0.5,0.3h3c0.6,0,1,0.5,1,1s-0.5,1-1,1H42.8
						c-0.6,0-1-0.5-1-1s0.5-1,1-1h4.2c0.2,0,0.4-0.1,0.5-0.3c0.1-0.2,0-0.4-0.1-0.5l-3.2-3.2c-0.1-0.1-0.2-0.1-0.4-0.1H42.1z
						 M61.9,20.1c-0.1,0-0.3,0.1-0.4,0.1L46.1,35.9c-0.2,0.2-0.2,0.5,0,0.7l4.9,4.9c0.1,0.1,0.2,0.1,0.4,0.1h8.5
						c0.1,0,0.3-0.1,0.4-0.1l11.2-11.4c0.2-0.2,0.2-0.5,0-0.7l-9.1-9.3C62.1,20.1,62,20.1,61.9,20.1z"/>
				</g>
				<g>
					<rect x="64.5" y="58.2" class="st1" width="2" height="2"/>
				</g>
				<g>
					<rect x="58.5" y="58.2" class="st1" width="2" height="2"/>
				</g>
				<g>
					<path class="st1" d="M53.4,36.2c-0.3,0-0.5-0.1-0.7-0.3c-0.4-0.4-0.4-1,0-1.4l7.6-7.6c0.2-0.2,0.4-0.3,0.7-0.3
						c0.3,0,0.5,0.1,0.7,0.3c0.4,0.4,0.4,1,0,1.4l-7.6,7.6C54,36.1,53.7,36.2,53.4,36.2z"/>
				</g>
			</g>
		</g>
	</g>
	<g>
		<path class="st1" d="M164.3,26.2h9.4l-16.1,47.5h-9.4l-10.9-36l-11.1,36H117l-16-47.5h9.8L122,63.8l11.1-37.7h9L153.3,64
			L164.3,26.2z"/>
		<path class="st1" d="M209.4,73.7l-8.2-14c-0.4,0-0.9,0.1-1.7,0.1h-10.7v14h-9.1V26.2h19.8c6.2,0,10.9,1.4,14.2,4.3
			c3.3,2.8,5,6.9,5,12.1c0,3.7-0.8,6.9-2.4,9.5c-1.6,2.6-3.9,4.6-7,5.9l10.4,15.7H209.4z M188.8,51.7h10.7c3.4,0,6.1-0.7,7.9-2.2
			c1.8-1.5,2.7-3.7,2.7-6.6c0-2.9-0.9-5.1-2.7-6.5c-1.8-1.4-4.4-2.2-7.9-2.2h-10.7V51.7z"/>
		<path class="st1" d="M223,26.2h19.1v47.5H233V34.2h-10V26.2z"/>
		<path class="st1" d="M281.9,29.1c2.9,2.2,4.3,5.3,4.3,9.1c0,2.2-0.6,4.1-1.8,5.9c-1.2,1.8-2.8,3.1-4.9,4.1c2.8,1,5,2.6,6.6,4.7
			c1.6,2.1,2.4,4.6,2.4,7.3c0,2.8-0.7,5.2-2.2,7.3c-1.5,2.1-3.6,3.7-6.4,4.8c-2.8,1.1-6,1.7-9.7,1.7c-3.7,0-7-0.6-9.7-1.7
			c-2.8-1.1-4.9-2.7-6.4-4.7c-1.5-2-2.2-4.4-2.2-7.2c0-2.8,0.8-5.3,2.5-7.4c1.7-2.1,4-3.7,6.9-4.8c-2.2-1.1-3.9-2.5-5.2-4.3
			c-1.2-1.8-1.9-3.8-1.9-6c0-3.7,1.4-6.7,4.3-8.9c2.9-2.2,6.8-3.3,11.6-3.3C275.1,25.8,279.1,26.9,281.9,29.1z M263,54.1
			c-1.7,1.3-2.6,3.1-2.6,5.4c0,2.4,0.9,4.2,2.6,5.5c1.7,1.3,4.1,2,7.3,2c3.1,0,5.5-0.6,7.2-1.9c1.7-1.3,2.6-3.1,2.6-5.5
			c0-2.3-0.9-4.1-2.6-5.4c-1.7-1.3-4.2-1.9-7.3-1.9C267.1,52.2,264.7,52.9,263,54.1z M264.1,34c-1.5,1.1-2.2,2.7-2.2,4.7
			c0,2,0.7,3.6,2.2,4.7c1.5,1.1,3.5,1.7,6.1,1.7c2.6,0,4.7-0.6,6.1-1.7c1.4-1.1,2.2-2.7,2.2-4.7c0-2-0.7-3.6-2.2-4.7
			c-1.4-1.1-3.5-1.7-6.1-1.7C267.6,32.3,265.6,32.8,264.1,34z"/>
	</g>
	<g>
		<path class="st1" d="M303.7,46.5v-0.9l0.9-0.1c0.2,0,0.2-0.1,0.2-0.3v-8c0-0.2,0-0.3-0.2-0.3l-0.9-0.1v-1h4.6
			c2.5,0,3.2,1.1,3.2,2.6c0,1.4-0.9,2.2-1.8,2.5v0c1.7,0.2,2.5,1.1,2.5,2.6c0,2.2-1.7,2.9-4,2.9H303.7z M307.5,40.4
			c1.1,0,2.3-0.3,2.3-1.7c0-1.3-0.8-1.6-2-1.6h-1.2v3.3H307.5z M307.9,45.2c1.4,0,2.4-0.3,2.4-1.8c0-1.4-1-1.8-2.2-1.8h-1.7v3.5
			H307.9z"/>
		<path class="st1" d="M314,49.6v-1l1-0.1c0.2,0,0.3-0.1,0.4-0.3l0.8-1.7l-2.7-6.2c-0.1-0.2-0.1-0.2-0.3-0.2l-0.6-0.1l0.2-1h3.4v1
			l-1,0.1l1.8,4.5h0.1l1.8-4.5l-1-0.1l0.2-1h3v1l-0.5,0.1c-0.2,0-0.3,0.1-0.4,0.2l-3.4,8.3l1.5,0.1v1H314z"/>
	</g>
	<g>
		<path class="st2" d="M304.7,63.2h2.8v1.1h-3.9V54.1h1.1V63.2z M309.8,63.2h2.8v1.1h-3.9V54.1h1.1V63.2z M323.8,59.1
			c0,1.5-0.5,2.7-1.6,3.7c-1,1-2.3,1.5-3.7,1.5c-1.5,0-2.7-0.5-3.7-1.5c-1-1-1.6-2.3-1.6-3.7c0-1.4,0.5-2.7,1.6-3.7
			c1-1,2.3-1.6,3.7-1.6c1.5,0,2.7,0.5,3.7,1.5C323.3,56.5,323.8,57.7,323.8,59.1 M314.3,59.1c0,1.1,0.4,2.1,1.2,3
			c0.8,0.8,1.8,1.2,2.9,1.2c1.2,0,2.1-0.4,2.9-1.2c0.8-0.8,1.2-1.8,1.2-3c0-1.2-0.4-2.1-1.2-3c-0.8-0.8-1.8-1.2-3-1.2
			c-1.2,0-2.1,0.4-2.9,1.2C314.7,57,314.3,58,314.3,59.1 M326.5,58.8h0.3c0.8,0,1.4-0.1,1.9-0.4c0.5-0.2,0.7-0.7,0.7-1.4
			c0-0.8-0.2-1.3-0.7-1.5c-0.5-0.2-1.1-0.3-1.9-0.3h-0.3V58.8z M326.5,64.2h-1.1V54.1h1.5c1.1,0,2,0.2,2.7,0.6c0.7,0.4,1,1.1,1,2.2
			c0,0.8-0.2,1.4-0.7,1.9c-0.5,0.5-1.1,0.8-1.9,0.9l3.2,4.6l-1.4,0l-3.1-4.5h-0.3V64.2z M332.6,54.1h5.3v1.1h-4.1v3h4v1.1h-4v4h4.1
			v1.1h-5.3V54.1z M339.9,53.6l7.9,8.3v-7.9h1.1v10.6l-7.9-8.3v7.8h-1.1V53.6z M353.7,64.2h-1.1v-9.1h-2.5v-1.1h6.1v1.1h-2.5V64.2z
			 M357.4,54.1h5.3v1.1h-4.1v3h4v1.1h-4v4h4.1v1.1h-5.3V54.1z M371.9,57.5c0.5-0.4,0.8-0.7,1-0.8c0.2-0.2,0.3-0.4,0.3-0.8
			c0-0.3-0.1-0.6-0.3-0.7c-0.2-0.2-0.5-0.3-0.8-0.3c-0.3,0-0.6,0.1-0.8,0.3c-0.2,0.2-0.3,0.5-0.3,0.8c0,0.2,0,0.3,0.1,0.5
			c0.1,0.1,0.2,0.4,0.5,0.8L371.9,57.5L371.9,57.5z M374.4,62.8c-0.5,0.5-1.1,0.9-1.6,1.2c-0.5,0.3-1.1,0.4-1.7,0.4
			c-0.8,0-1.5-0.3-2.1-0.8c-0.6-0.5-0.9-1.2-0.9-2c0-0.8,0.2-1.4,0.6-1.8c0.4-0.5,1-1,1.9-1.5l0.1-0.1c-0.4-0.5-0.6-0.9-0.8-1.2
			c-0.2-0.3-0.2-0.6-0.2-1c0-0.6,0.2-1.2,0.6-1.6c0.4-0.4,0.9-0.6,1.6-0.6c0.6,0,1.1,0.2,1.5,0.6c0.4,0.4,0.6,0.8,0.6,1.4
			c0,0.5-0.2,1-0.4,1.3c-0.3,0.4-0.7,0.8-1.3,1.2l2.1,2.7l1.2-1.3l0.8,0.7l-1.3,1.5l1.7,2.2l-1.4,0L374.4,62.8z M371,59.3
			c-0.4,0.3-0.7,0.5-1.1,0.9c-0.4,0.3-0.6,0.8-0.6,1.3c0,0.5,0.2,0.9,0.5,1.3c0.4,0.4,0.8,0.6,1.3,0.6c0.5,0,1-0.1,1.4-0.4
			c0.4-0.3,0.8-0.6,1.2-1l-2.3-2.9L371,59.3z M390,56.3c-0.4-0.4-0.9-0.7-1.4-1c-0.5-0.2-1.1-0.4-1.7-0.4c-1.1,0-2.1,0.4-2.9,1.3
			c-0.8,0.8-1.2,1.8-1.2,2.9c0,1.1,0.4,2.1,1.2,2.9c0.8,0.8,1.8,1.3,2.9,1.3c0.6,0,1.1-0.1,1.6-0.4c0.5-0.2,1-0.6,1.4-1v1.4
			c-0.9,0.7-1.9,1-3,1c-1.4,0-2.7-0.5-3.7-1.5c-1-1-1.6-2.2-1.6-3.7c0-1.5,0.5-2.7,1.6-3.7c1-1,2.3-1.6,3.7-1.6c1.1,0,2.1,0.3,3,1
			V56.3z M393,60.1c0,0.6,0,1,0.1,1.3c0,0.3,0.2,0.6,0.4,0.9c0.2,0.3,0.5,0.5,0.9,0.7c0.4,0.2,0.8,0.3,1.2,0.3
			c0.4,0,0.8-0.1,1.1-0.2c0.3-0.2,0.6-0.4,0.9-0.7c0.2-0.3,0.4-0.6,0.4-1c0.1-0.4,0.1-0.8,0.1-1.4v-6h1.1v6.4c0,0.7-0.1,1.2-0.2,1.6
			c-0.1,0.4-0.3,0.8-0.7,1.2c-0.4,0.4-0.8,0.7-1.3,0.9c-0.5,0.2-1,0.3-1.5,0.3c-0.5,0-1-0.1-1.4-0.3c-0.4-0.2-0.9-0.4-1.2-0.8
			c-0.4-0.4-0.6-0.8-0.8-1.2c-0.1-0.4-0.2-1-0.2-1.7v-6.4h1.1V60.1z M401.1,54.1h5.3v1.1h-4.1v3h4v1.1h-4v4h4.1v1.1h-5.3V54.1z
			 M408.4,53.6l7.9,8.3v-7.9h1.1v10.6l-7.9-8.3v7.8h-1.1V53.6z M427.3,56.3c-0.4-0.4-0.9-0.7-1.4-1c-0.5-0.2-1.1-0.4-1.7-0.4
			c-1.1,0-2.1,0.4-2.9,1.3c-0.8,0.8-1.2,1.8-1.2,2.9c0,1.1,0.4,2.1,1.2,2.9c0.8,0.8,1.8,1.3,2.9,1.3c0.6,0,1.1-0.1,1.6-0.4
			c0.5-0.2,1-0.6,1.4-1v1.4c-0.9,0.7-1.9,1-3,1c-1.4,0-2.7-0.5-3.7-1.5c-1-1-1.6-2.2-1.6-3.7c0-1.5,0.5-2.7,1.6-3.7
			c1-1,2.3-1.6,3.7-1.6c1.1,0,2.1,0.3,3,1V56.3z M430.7,61.3l-1.2,2.9h-1.2l4.7-10.6l4.6,10.6l-1.2,0l-1.2-2.9H430.7z M432.9,56.2
			l-1.7,4.1h3.4L432.9,56.2z"/>
	</g>
</g>
</svg>
