<?xml version="1.0" encoding="utf-8"?>
<!-- Generator: Adobe Illustrator 22.0.1, SVG Export Plug-In . SVG Version: 6.00 Build 0)  -->
<svg version="1.1" id="Capa_1" xmlns="http://www.w3.org/2000/svg" xmlns:xlink="http://www.w3.org/1999/xlink" x="0px" y="0px"
	 viewBox="0 0 24 24" style="enable-background:new 0 0 24 24;" xml:space="preserve">
<style type="text/css">
	.st0{fill:#B64E4A;}
</style>
<g>
	<g>
		<g>
			<path class="st0" d="M17.9,9.2L14.7,6c0,0-0.1-0.1-0.2-0.1H9.7c-0.5,0-1,0.4-1,0.9V10h-2C6.3,10,6,10.3,6,10.7v3.5
				C6,14.7,6.3,15,6.7,15h2v2.1c0,0.5,0.4,0.9,1,0.9H17c0.5,0,1-0.4,1-0.9V9.4C18,9.3,18,9.3,17.9,9.2z M14.6,6.6l2.7,2.6h-2.7
				C14.6,9.2,14.6,6.6,14.6,6.6z M6.7,14.5c-0.1,0-0.2-0.1-0.2-0.2v-3.5c0-0.1,0.1-0.2,0.2-0.2h6.6c0.1,0,0.2,0.1,0.2,0.2v3.5
				c0,0.1-0.1,0.2-0.2,0.2H6.7z M17.5,17.1c0,0.3-0.2,0.5-0.5,0.5H9.7c-0.3,0-0.5-0.2-0.5-0.5V15h4.2c0.4,0,0.7-0.3,0.7-0.7v-3.5
				c0-0.4-0.3-0.7-0.7-0.7H9.2V6.9c0-0.3,0.2-0.5,0.5-0.5h4.4v3c0,0.1,0.1,0.2,0.2,0.2h3.2V17.1L17.5,17.1z"/>
		</g>
	</g>
	<g>
		<g>
			<path class="st0" d="M8.9,11.9c-0.1-0.1-0.2-0.2-0.3-0.2s-0.2,0-0.5,0H7.4v2h0.4V13h0.3c0.2,0,0.3,0,0.4,0c0.1,0,0.1,0,0.2-0.1
				c0.1,0,0.1-0.1,0.2-0.2C9,12.5,9,12.4,9,12.2C9,12.1,9,12,8.9,11.9z M8.6,12.4l-0.1,0.1c-0.1,0-0.2,0-0.3,0H7.9V12h0.2
				c0.2,0,0.3,0,0.3,0c0.1,0,0.1,0,0.2,0.1c0,0,0.1,0.1,0.1,0.2C8.6,12.3,8.6,12.4,8.6,12.4z"/>
		</g>
	</g>
	<g>
		<g>
			<path class="st0" d="M11.1,12.2c0-0.1-0.1-0.2-0.2-0.3s-0.2-0.1-0.3-0.2c-0.1,0-0.2,0-0.4,0H9.4v2h0.8c0.2,0,0.3,0,0.4,0
				c0.1,0,0.2-0.1,0.3-0.2c0.1-0.1,0.2-0.2,0.2-0.4c0-0.1,0.1-0.3,0.1-0.4C11.2,12.5,11.1,12.3,11.1,12.2z M10.7,13
				c0,0.1-0.1,0.2-0.1,0.2s-0.1,0.1-0.2,0.1c-0.1,0-0.1,0-0.3,0H9.8l0,0V12H10c0.2,0,0.3,0,0.3,0c0.1,0,0.1,0,0.2,0.1
				c0.1,0,0.1,0.1,0.1,0.2s0,0.2,0,0.4C10.7,12.8,10.7,12.9,10.7,13z"/>
		</g>
	</g>
	<g>
		<g>
			<polygon class="st0" points="13,12 13,11.6 11.5,11.6 11.5,13.6 11.9,13.6 11.9,12.8 12.8,12.8 12.8,12.4 11.9,12.4 11.9,12 			
				"/>
		</g>
	</g>
</g>
</svg>
